ffmpeg version 5.0.1-essentials_build-www.gyan.dev Copyright (c) 2000-2022 the FFmpeg developers
  built with gcc 11.2.0 (Rev7, Built by MSYS2 project)
  configuration: --enable-gpl --enable-version3 --enable-static --disable-w32threads --disable-autodetect --enable-fontconfig --enable-iconv --enable-gnutls --enable-libxml2 --enable-gmp --enable-lzma --enable-zlib --enable-libsrt --enable-libssh --enable-libzmq --enable-avisynth --enable-sdl2 --enable-libwebp --enable-libx264 --enable-libx265 --enable-libxvid --enable-libaom --enable-libopenjpeg --enable-libvpx --enable-libass --enable-libfreetype --enable-libfribidi --enable-libvidstab --enable-libvmaf --enable-libzimg --enable-amf --enable-cuda-llvm --enable-cuvid --enable-ffnvcodec --enable-nvdec --enable-nvenc --enable-d3d11va --enable-dxva2 --enable-libmfx --enable-libgme --enable-libopenmpt --enable-libopencore-amrwb --enable-libmp3lame --enable-libtheora --enable-libvo-amrwbenc --enable-libgsm --enable-libopencore-amrnb --enable-libopus --enable-libspeex --enable-libvorbis --enable-librubberband
  libavutil      57. 17.100 / 57. 17.100
  libavcodec     59. 18.100 / 59. 18.100
  libavformat    59. 16.100 / 59. 16.100
  libavdevice    59.  4.100 / 59.  4.100
  libavfilter     8. 24.100 /  8. 24.100
  libswscale      6.  4.100 /  6.  4.100
  libswresample   4.  3.100 /  4.  3.100
  libpostproc    56.  3.100 / 56.  3.100
Input #0, rawvideo, from 'pipe:':
  Duration: N/A, start: 0.000000, bitrate: 3981312 kb/s
  Stream #0:0: Video: rawvideo (BGRA / 0x41524742), bgra, 1920x1080, 3981312 kb/s, 60 tbr, 60 tbn
Stream mapping:
  Stream #0:0 -> #0:0 (rawvideo (native) -> h264 (libx264))
[libx264 @ 00000202bac1ff80] using cpu capabilities: MMX2 SSE2Fast SSSE3 SSE4.2 AVX FMA3 BMI2 AVX2
[libx264 @ 00000202bac1ff80] profile High, level 4.2, 4:2:0, 8-bit
[libx264 @ 00000202bac1ff80] 264 - core 164 r3094 bfc87b7 - H.264/MPEG-4 AVC codec - Copyleft 2003-2022 - http://www.videolan.org/x264.html - options: cabac=1 ref=3 deblock=1:0:0 analyse=0x3:0x113 me=hex subme=7 psy=1 psy_rd=1.00:0.00 mixed_ref=1 me_range=16 chroma_me=1 trellis=1 8x8dct=1 cqm=0 deadzone=21,11 fast_pskip=1 chroma_qp_offset=-2 threads=24 lookahead_threads=4 sliced_threads=0 nr=0 decimate=1 interlaced=0 bluray_compat=0 constrained_intra=0 bframes=3 b_pyramid=2 b_adapt=1 b_bias=0 direct=1 weightb=1 open_gop=0 weightp=2 keyint=250 keyint_min=25 scenecut=40 intra_refresh=0 rc_lookahead=40 rc=abr mbtree=1 bitrate=20971 ratetol=1.0 qcomp=0.60 qpmin=0 qpmax=69 qpstep=4 ip_ratio=1.40 aq=1:1.00
Output #0, mp4, to '2022_04_13_22_23_59.mp4':
  Metadata:
    encoder         : Lavf59.16.100
  Stream #0:0: Video: h264 (avc1 / 0x31637661), yuv420p(tv, progressive), 1920x1080, q=2-31, 20971 kb/s, 60 fps, 15360 tbn
    Metadata:
      encoder         : Lavc59.18.100 libx264
    Side data:
      cpb: bitrate max/min/avg: 0/0/20971000 buffer size: 0 vbv_delay: N/A
frame=    1 fps=0.0 q=0.0 size=       0kB time=00:00:00.00 bitrate=N/A speed=N/A    frame=   15 fps=0.0 q=0.0 size=       0kB time=00:00:00.00 bitrate=N/A speed=   0x    frame=   33 fps= 32 q=0.0 size=       0kB time=00:00:00.00 bitrate=N/A speed=   0x    frame=   49 fps= 32 q=0.0 size=       0kB time=00:00:00.00 bitrate=N/A speed=   0x    frame=   67 fps= 33 q=0.0 size=       0kB time=00:00:00.00 bitrate=N/A speed=   0x    frame=   85 fps= 33 q=37.0 size=    2560kB time=00:00:00.23 bitrate=89854.7kbits/s speed=0.0918x    frame=  103 fps= 34 q=34.0 size=    3584kB time=00:00:00.53 bitrate=55044.3kbits/s speed=0.175x    frame=  120 fps= 34 q=31.0 size=    3840kB time=00:00:00.81 bitrate=38516.5kbits/s speed=0.229x    frame=  138 fps= 34 q=30.0 size=    4096kB time=00:00:01.11 bitrate=30047.3kbits/s speed=0.274x    frame=  157 fps= 34 q=29.0 size=    4608kB time=00:00:01.43 bitrate=26335.4kbits/s speed=0.312x    frame=  177 fps= 35 q=29.0 size=    5376kB time=00:00:01.76 bitrate=24927.7kbits/s speed=0.346x    frame=  197 fps= 35 q=29.0 size=    6144kB time=00:00:02.10 bitrate=23966.9kbits/s speed=0.373x    frame=  216 fps= 35 q=29.0 size=    6912kB time=00:00:02.41 bitrate=23429.8kbits/s speed=0.394x    frame=  235 fps= 35 q=29.0 size=    7680kB time=00:00:02.73 bitrate=23017.1kbits/s speed=0.411x    frame=  254 fps= 35 q=29.0 size=    8704kB time=00:00:03.05 bitrate=23377.7kbits/s speed=0.426x    frame=  273 fps= 36 q=29.0 size=    9472kB time=00:00:03.36 bitrate=23047.6kbits/s speed=0.439x    frame=  293 fps= 36 q=29.0 size=   10240kB time=00:00:03.70 bitrate=22671.6kbits/s speed=0.452x    frame=  311 fps= 36 q=30.0 size=   11264kB time=00:00:04.00 bitrate=23068.4kbits/s speed=0.461x    frame=  332 fps= 36 q=30.0 size=   12288kB time=00:00:04.35 bitrate=23140.7kbits/s speed=0.473x    frame=  352 fps= 36 q=30.0 size=   13312kB time=00:00:04.68 bitrate=23284.9kbits/s speed=0.482x    frame=  373 fps= 36 q=30.0 size=   14080kB time=00:00:05.03 bitrate=22915.7kbits/s speed=0.492x    frame=  393 fps= 37 q=30.0 size=   14848kB time=00:00:05.36 bitrate=22664.7kbits/s speed= 0.5x    frame=  414 fps= 37 q=30.0 size=   15872kB time=00:00:05.71 bitrate=22744.4kbits/s speed=0.508x    frame=  433 fps= 37 q=30.0 size=   16640kB time=00:00:06.03 bitrate=22593.4kbits/s speed=0.513x    frame=  453 fps= 37 q=30.0 size=   17664kB time=00:00:06.36 bitrate=22728.1kbits/s speed=0.518x    frame=  473 fps= 37 q=30.0 size=   18432kB time=00:00:06.70 bitrate=22536.4kbits/s speed=0.523x    frame=  493 fps= 37 q=30.0 size=   19200kB time=00:00:07.03 bitrate=22362.8kbits/s speed=0.528x    frame=  514 fps= 37 q=30.0 size=   20224kB time=00:00:07.38 bitrate=22438.9kbits/s speed=0.533x    frame=  534 fps= 37 q=30.0 size=   20992kB time=00:00:07.71 bitrate=22284.9kbits/s speed=0.537x    frame=  553 fps= 37 q=30.0 size=   21760kB time=00:00:08.03 bitrate=22189.7kbits/s speed=0.54x    frame=  573 fps= 37 q=30.0 size=   22784kB time=00:00:08.36 bitrate=22308.2kbits/s speed=0.544x    frame=  592 fps= 37 q=30.0 size=   23808kB time=00:00:08.68 bitrate=22460.7kbits/s speed=0.547x    frame=  611 fps= 37 q=30.0 size=   24576kB time=00:00:09.00 bitrate=22369.5kbits/s speed=0.549x    frame=  630 fps= 37 q=30.0 size=   25344kB time=00:00:09.31 bitrate=22284.5kbits/s speed=0.551x    frame=  650 fps= 37 q=30.0 size=   26112kB time=00:00:09.65 bitrate=22166.7kbits/s speed=0.554x    frame=  670 fps= 37 q=30.0 size=   26880kB time=00:00:09.98 bitrate=22056.8kbits/s speed=0.557x    frame=  690 fps= 37 q=30.0 size=   27648kB time=00:00:10.31 bitrate=21953.9kbits/s speed=0.559x    frame=  710 fps= 37 q=30.0 size=   28416kB time=00:00:10.65 bitrate=21857.5kbits/s speed=0.562x    frame=  730 fps= 37 q=30.0 size=   29184kB time=00:00:10.98 bitrate=21767.0kbits/s speed=0.564x    frame=  749 fps= 37 q=30.0 size=   29952kB time=00:00:11.30 bitrate=21713.8kbits/s speed=0.565x    frame=  768 fps= 37 q=30.0 size=   30976kB time=00:00:11.61 bitrate=21844.0kbits/s speed=0.567x    frame=  787 fps= 37 q=30.0 size=   31744kB time=00:00:11.93 bitrate=21791.5kbits/s speed=0.568x    frame=  805 fps= 37 q=30.0 size=   32512kB time=00:00:12.23 bitrate=21771.4kbits/s speed=0.568x    frame=  824 fps= 37 q=31.0 size=   33792kB time=00:00:12.55 bitrate=22057.6kbits/s speed=0.569x    frame=  843 fps= 37 q=31.0 size=   34560kB time=00:00:12.86 bitrate=22003.7kbits/s speed=0.571x    frame=  861 fps= 37 q=31.0 size=   35328kB time=00:00:13.16 bitrate=21980.2kbits/s speed=0.571x    frame=  880 fps= 37 q=31.0 size=   36096kB time=00:00:13.48 bitrate=21930.6kbits/s speed=0.571x    frame=  899 fps= 37 q=31.0 size=   36864kB time=00:00:13.80 bitrate=21883.2kbits/s speed=0.572x    frame=  919 fps= 37 q=31.0 size=   37632kB time=00:00:14.13 bitrate=21812.3kbits/s speed=0.574x    frame=  938 fps= 37 q=31.0 size=   38656kB time=00:00:14.45 bitrate=21914.8kbits/s speed=0.575x    frame=  957 fps= 37 q=31.0 size=   39424kB time=00:00:14.76 bitrate=21870.9kbits/s speed=0.575x    frame=  976 fps= 37 q=31.0 size=   40192kB time=00:00:15.08 bitrate=21828.9kbits/s speed=0.576x    frame=  995 fps= 37 q=31.0 size=   40960kB time=00:00:15.40 bitrate=21788.5kbits/s speed=0.577x    frame= 1014 fps= 37 q=31.0 size=   41728kB time=00:00:15.71 bitrate=21749.8kbits/s speed=0.578x    frame= 1033 fps= 37 q=31.0 size=   42496kB time=00:00:16.03 bitrate=21712.7kbits/s speed=0.578x    frame= 1050 fps= 37 q=31.0 size=   43264kB time=00:00:16.31 bitrate=21721.2kbits/s speed=0.578x    frame= 1069 fps= 37 q=31.0 size=   44288kB time=00:00:16.63 bitrate=21812.0kbits/s speed=0.579x    frame= 1088 fps= 37 q=31.0 size=   45056kB time=00:00:16.95 bitrate=21775.7kbits/s speed=0.579x    frame= 1108 fps= 37 q=31.0 size=   45824kB time=00:00:17.28 bitrate=21719.7kbits/s speed=0.581x    frame= 1109 fps= 36 q=-1.0 Lsize=   48420kB time=00:00:18.43 bitrate=21518.2kbits/s speed=0.605x    
video:48405kB audio:0kB subtitle:0kB other streams:0kB global headers:0kB muxing overhead: 0.029843%
[libx264 @ 00000202bac1ff80] frame I:5     Avg QP:19.99  size:386022
[libx264 @ 00000202bac1ff80] frame P:279   Avg QP:24.89  size:102992
[libx264 @ 00000202bac1ff80] frame B:825   Avg QP:28.94  size: 22911
[libx264 @ 00000202bac1ff80] consecutive B-frames:  0.8%  0.0%  0.0% 99.2%
[libx264 @ 00000202bac1ff80] mb I  I16..4: 13.3% 44.5% 42.2%
[libx264 @ 00000202bac1ff80] mb P  I16..4:  0.2%  1.2%  0.7%  P16..4: 33.6% 22.2% 17.8%  0.0%  0.0%    skip:24.3%
[libx264 @ 00000202bac1ff80] mb B  I16..4:  0.0%  0.1%  0.0%  B16..8: 42.3%  7.6%  3.4%  direct: 4.7%  skip:41.8%  L0:51.4% L1:44.8% BI: 3.9%
[libx264 @ 00000202bac1ff80] final ratefactor: 21.51
[libx264 @ 00000202bac1ff80] 8x8 transform intra:53.1% inter:45.6%
[libx264 @ 00000202bac1ff80] coded y,uvDC,uvAC intra: 75.1% 33.7% 22.8% inter: 18.6% 2.9% 0.6%
[libx264 @ 00000202bac1ff80] i16 v,h,dc,p: 52% 21% 21%  6%
[libx264 @ 00000202bac1ff80] i8 v,h,dc,ddl,ddr,vr,hd,vl,hu:  9% 10% 45%  5%  6%  4%  7%  4%  8%
[libx264 @ 00000202bac1ff80] i4 v,h,dc,ddl,ddr,vr,hd,vl,hu: 18% 16% 23%  6%  8%  6% 10%  5%  9%
[libx264 @ 00000202bac1ff80] i8c dc,h,v,p: 72% 17%  9%  2%
[libx264 @ 00000202bac1ff80] Weighted P-Frames: Y:0.0% UV:0.0%
[libx264 @ 00000202bac1ff80] ref P L0: 49.5% 11.3% 22.5% 16.7%
[libx264 @ 00000202bac1ff80] ref B L0: 62.3% 26.1% 11.6%
[libx264 @ 00000202bac1ff80] ref B L1: 81.1% 18.9%
[libx264 @ 00000202bac1ff80] kb/s:21453.31
